<mxfile host="Electron" modified="2024-02-29T00:52:33.495Z" agent="Mozilla/5.0 (Macintosh; Intel Mac OS X 10_15_7) AppleWebKit/537.36 (KHTML, like Gecko) draw.io/21.5.0 Chrome/112.0.5615.204 Electron/24.5.1 Safari/537.36" etag="aHNidFLgeP3voxtT0Apr" version="21.5.0" type="device">
  <diagram name="Page-1" id="SWLV46Le6o_YPXyqPfMe">
    <mxGraphModel dx="1173" dy="766" grid="1" gridSize="10" guides="1" tooltips="1" connect="1" arrows="1" fold="1" page="1" pageScale="1" pageWidth="850" pageHeight="1100" math="0" shadow="0">
      <root>
        <mxCell id="0" />
        <mxCell id="1" parent="0" />
        <mxCell id="C1OJzjw7HxmYDHeaSRX--1" value="" style="rounded=0;whiteSpace=wrap;html=1;fillColor=#FFFFFF;" vertex="1" parent="1">
          <mxGeometry width="800" height="500" as="geometry" />
        </mxCell>
        <mxCell id="C1OJzjw7HxmYDHeaSRX--2" value="" style="shape=image;verticalLabelPosition=bottom;labelBackgroundColor=default;verticalAlign=top;aspect=fixed;imageAspect=0;image=https://static.vecteezy.com/system/resources/previews/010/301/853/original/ai-artificial-intelligence-finance-technology-line-icon-illustration-vector.jpg;clipPath=inset(11.67% 11.67% 53.67% 9.33%);" vertex="1" parent="1">
          <mxGeometry x="228.28" y="30" width="293.43" height="128.75015063291139" as="geometry" />
        </mxCell>
        <mxCell id="C1OJzjw7HxmYDHeaSRX--3" value="" style="shape=image;verticalLabelPosition=bottom;labelBackgroundColor=default;verticalAlign=top;aspect=fixed;imageAspect=0;image=data:image/png,iVBORw0KGgoAAAANSUhEUgAAAbAAAAB1CAMAAAAYwkSrAAAAhFBMVEX///8AAAD4+PjX19enp6ciIiLq6urv7+8ZGRnc3NxFRUW3t7ezs7Pz8/PMzMzm5uZ+fn6UlJQrKytQUFBmZmZsbGzT09OgoKDh4eEwMDCIiIhhYWFZWVmtra2/v7/Jyck7Ozuampp1dXU5OTkeHh5CQkIQEBCNjY1ycnJLS0tUVFQLCwuOjHcVAAAS50lEQVR4nO1daUPqOhCVAmUtm+w7Kij6///fE2iSM5PJUu+Vqw/ON21Kk5xkMluSh4ci6LT6w331UPqoD5b99bTQu3dcGcl6dChRVHudf12rOxzo9gclCdtJ7V9X7Q4b6bwu0nXCoJ/96+rdwVBx03Wm7C4YfxSyhZeuE16Tf13JOzTKQbo+0byvZD8FLc5Nfb8cvj9bQvIuFn8GVoSV911DPUjWPao3jv9lNe/IQfjqNejDpDPCx5vN6+Kxud/v33uVzt2o/idYAx9vEgfjpWNROzxOulev7s2ja1aqwcZRplV1UFYqjdZ35fG6OJq+d3d9betkrPTSvmJt79jpjp+7CzVcQvGC/X0xuxpqutf77jJPXrpO2F2xyrcNrQK659ckSNcnHu9G9VXQ0FLNtX5tnjk3h9n2uJ1xo3pQvmrFbxVa2DlWoemQ0lIfVhrdWpZktbTRHhHd8XBn7PuhV7BX8XE2p3Rt29TsSltNfNwQf+SOv4hK3tUf4tMVDT5XW0KZjbEKSof0e2t78yhX1PpUEZ6O2eI1cfxKxRR5vtvQ34cxiLsXO5zcZYtXz81F1/iHn76zxreMpEWmzxt/nr1Suhbe5SkxYnH9fXW+ZbSZo4m7EFs0prIP0qAdIbMvpX7Upo3yJxrTu0iVUOPZAHWq05ff6dNJuBszPcdkddONJF33Fmq6H5qj/vh/YoGnXYC/aJIaCI83Vhz5iI9rPfrwKUr162qTrFB/Z6t3XplPAe2KGfwqkCb5RRTmZ9hPBUfT0P34MdYa1kG1AlMsnfOa5KhKWuvvAk26GHnLegkblWyAG5HqhtUCOoSemLEvJG8Ous747ZSxZce7qvgII4QoMWYmxTjUacnuo/QoiqxMvRUZHVuX/Dj+6pBNWmT8eQhDvoYNRY8JrGB2R09YjfLI80LqTGUJLKNaxFZKCb85Ltpnbdn7CrsJA+vquWMKGsKM10KyvMZGQxAyt/UUi9DNU39ANEdRjfPnILEC9D5D1kkYSKFe9uAj7FlYvFIyKWb2+H/MH4UXvu4+hi9vDPxnY1yoKS7CEvPvFiloESZZXpZ2+c4VyHb+IDgxUivE9n9jzA7RVz0eBRdhZoZ0aEFG2EFYvDYzoTufaCWm+b+H9usUUkLP7LiXMrN+Z+pB+mK3xCN3HISZaTpmBRlhVesXG4J5ewb14Of/HATcU5ZlMd/kM7rWsp5JIZ0fjzZvRck7jB2E6U5f84IBwjIzNZvlMZ0eLzhwlH/K7+ygeeGlPaUk29Eg3K+MsR1LAtz+KZmwjfrX3CroJ6yie7C6Ov9NRRcsZcoS9hI2JW8LBgrL0Xr3/djPhLwVyC3dZcKUIj1IrII+wjYmCWCeE1FjHiVtsKn/e32dxAUwEDdXVMjP/z5zDKwnSKFwm2IiYWWh/WHCpmZNeQdLguWV1iuXQaAUSZ//cYMvzhzWCZWanl/7mTDBqXoG7XDu1RIJU6Mfo/ghwhIzVHg+x5pGzJpnb9Uu/8tnJD7ia87NS8RR8NvcimjuPsDQdobjRcKU6bMSCjoIa33onxGygnclgmHXDAqPnkAmmEfTRR+anCGESLppsdBnOp0WDbt9fiOyJAj9MbJXd2nPEmFKpx/UhIIiYWP0RuwFf2/G3IFzXVNPX6B90PM0OsMZDLO71W5d0M5nZ3e1yMfVbN6KIGHa7mmT8q0tdmFXfaOlnm/6eWfUe2E3DkjB7eefB7EdBBJhalV4kgoKhHW5QbQU/L3MPKvm5qJzJDH9yTspMJ5k3MngrDm3ZMMMxIV/T2+y4ja79AJ8+iTcmaFxWNlvEIDKdDJTQQNxqR0SYUqUbqSCFmFJX0tDM9LnkvdecoAc3Uzg2uRKm8uBi51WOxMTLe8JuQ6fGLoFVzIRHBBCiJYS1rYC9E3/vmHTJYfTIEc2HBEjiTBlO9Wkgpww44eqVjLDyWBlM5H1+UlHXgcg8uttNY2XaW4JYWPx2J6DS2iVRXO2ZBtIQNj0QQyK+yZZwxRbnP8Bn3WYYgJhSpQ0E6mgFF65dMppuELK21EQIFMrcOzW6tBoDvl1EyBXu3WQMKK/IOSpK7mL1E/RkjjDHButPA4zEIFr/uG6/IpAmOqpnljQQdheCYupET1DwSjusIXBLZSw04LnEWCiq/pJIGzrPrhHChe8OkuXuMINhD263nBaLomROLmCh55geYkVCFNK4lwsKBOGHoaNkT5SbxBDd+ZqCwkz2x5mDpxBqn8S//FKCrYV4kr3kRplHVoiYOuqNTHCLgD9TTbFPIS9igUlwjgvQKUgwRMcwO4sNRhr/jyi82/CTyopG0mYZeF55KH9QgxhTqEIBqQaZRjNFBVoD2F9saBN2MgWa5kR51uBkgasrU55EdFgAMgjlUseS1iVarTM4Twb9uYjFkSFnowibCvXGZJvdLZnAhatuL4LhKl/xYlEiZBTceNmWQhLmVHZmw69vgsVizhSB8SYssRswhb9TpZl3XWPxhDoYo36YX1+8YoktclAfsEmbLB8G/EsFNlhujMFjO4DxoyYoeRROqIIe3F2oan0R9+2ykxlHUkCsCq9RCSxgRRu5v/ihG0N77UKMTDw9zG7ARO+iK/GyBRO2HJzbmu6ImacqOUm4J03cxZz3qR2C4Qpd8lILBiMOCugh0/IwjEdIw8/0E2eIzZNQMcN8u5khL2RqdzFGQPLO7q5mAYPVBoCKGGQTDtFb92jJEZguVrAv8HAl3iWDOe8oXRzyR8R9lllS6zpEbuQ3sYpcxQLUEDr1XYNShjXuWooFk1/wmctVQfsLN01hLABCv8GfF4MhcPP4SINOo80UiXClKkU5ekQanLBmbB3Y3aNuFzUMlNcomA8Pzq/YYBLXq7HEMJs0jvw1OiyZgU7WLMCPLV6JhHCaEPQfhGWcRwx5AG8JugHEmFqAW9LBYsR1sNq92kXpMoHKc4gICwm8I96fS5jCWGCMtoTvgDdIXitjGaj5ysSxlbjxEScpDEJb1LRB/qTIHwkwpQ9N5QKmlrFEfaQmArU6VKmuZRU+4IzDMdl3jtImLVt9BNd6FA1lExdB8IbxtDdKmEF3W5l/MGIENgHlYP6NICSg612SIRNcxXqAydyms/gg068jiTsU5qb5ewdpbLOUZYURVhMYggLzDBR6oJjU3Wo0RQkIwg+oroGCLMGBYw5238Afl/u7gFZaddCjDgrK5R0pB58s3yJjCbsc2jq4UTEn5piUpgYRGlTeMyB2rC9hsmbc8EzlAv6qXll/JBYgGmsRgAQZnXu2vMM7S3ugIaxarvuRMLUG1Wi3Bit5pKtVoCwh2SiuoKIv4P0zwsCyhIHaIkHW0uUJCIhOV+TjPH38SgAIqCKASDMEntlu7iBXV8Nr89AJCxVTaWrIXh1T3tjixBmCCDNUrNWCHIUNJz9dphsnIMbKI+jsrxVD+b2dy17EgaERRg0z3ZogKPESo2Q8xL1csmGPkjl3aV1hQkjfkFVbWEGoIyLcE1BzZTUBcIcQUTjGs+3H0RsRGM1ZikCriZYhIERZiskGI/lz2TC9KTkuhKofIdzc/+MMCUYXgRPAFQsYjMudIDgS3R4j0GBvmh44QsUFJQG/UXCQH2RTgSCoCGvuiO3XjfFSstnR7b9IWEqUixUGrx9vpQp9kNQOkwYxHkuhEVtHTxDWUhfJAxk73bX59gBYVxgOggzZ4/a/qwNesn+kDAlgwRPACjdz86P2PU18xEIc2Rw78xLl3XvaoQ5o9M2mHXn2h9mhoDNGGYUBbz1IcLUZ4RwOAzCj6DWgdqCKvwFwuJFohr4XyNsav+gEywZx7ll1gw24agv2BHriIflW5xDhIm6Y/4LULNgAjb0tHZChAmzRKLRQupVL+p/toYFkhAI2PGvTsLA0zkTxj8cWSQcE1BT8ixEmGqv1KMQUfKkfpyBKqX+JBDmINxSOsw47Gc1LwTXVDxhWfQ24BOojuw+RQB8J6U3wXTdGK1gzubgzu69LxCGOnbg4h0csbp9QJjjEHAzL3O13khW2dS28SXCnEl3IuTstRPY90hms5TWCLYPWr6wL+JPRCKJf/gd9l3QKM2WNpr5KyAzTrs8wmh6MjSndWPNl+MJY8dLBlAXw1wnsObQNN2B0KdwNpi+2GNMcmZDhHl3iaE26jXFMLffTCYg7F1MHIGlf271RuQ9MV8hrGsnQHshhrlOoJ+z5u1S6NWGkSrn01VSltobIkzNYtFbiImPdc9mExJENO5P9NaL3W/7XyGDOLSNwf52NGFRZ/sDiCnmJqxiv9kT+nVtFtB5OjFbnNtFPB3y5pQUo/ju3MQu5ruAoY+ESRnZmFGmOtuMP9n2m5RZTb9CWORJMfIvuwmTjEi135W0eyfk//XSi5wKEKZcYI4laoc/6cqvz8imGNBYkbCtMCIwYVT9D7x4op5TKh13JITxBcLAXqmOO04AragzuQnLm1tnJ8QKZlfKdwEcT3WPIUzNYocWl5H8QVlzqBG+cB6SFAF7ion5UZDbLm3Q2p2fLGBR+QJhoP36dlGBLwA1IDdhqvMTJnKlvFCy8Tw/jiOGMDWKXCoFTSJbSsYFrRyudDRrylqAcbU1swnGnh2TMYGqnprJXyAMvuvz4GAMHWaJkzBV/k3Y72rLFxAvatREEKY/7qw102G4JtBlc5uMBpaXyDoH2wT+NbQ+uSmTwmRW7BQnDPe7ONt9Aij/kIwT9HRcsjLoblO+E3RjvMvm4MQIpUNVyW2lZmwfZLUCK0iZ7zajuYc88xe/nBKvIerNOASokrUBAS1lTUUSBmaPP2yEwsNUxEmY8n/naz09u57s1sPzOUDwhGeYXn09fgzroJiX49O63CiPK0Pr2DBmbVm59YtLGvVD1pgTS4gYycQvO1vp8VcmG7n1dC1MGMQVBh5T5QRYZM0MCc4wNfr5ftdRvpSdzolVzSMSKTjD9JUDXq9CcPOPaT8TesLuldniddcbcrWaDnRqzszeJutGZz2nIsYoC4UJ25l/hq7GAN+06aKg0mGstik7LOCcFwo3hrGDR4MzTNfHb6MK9qCIOu+w2O1GXCCHHUegQBYmDNbBUOaDuEU9SBhGsNnO7uq669kfGyJMN3UgWs0GcYwdLOU1kjDbRAv60kGUFSUMjDDXRisDWO604eMmTIzeu9KKhAhMgDDz4aATqBPhexO8hXGE1YXtiJ5bck9A0VuUMFBO3feI8j47Qf3PTZhSwSgVibRhuy5ERy4rlJMw892Ig7WzYOheajwQNnKKOUuQnt/0RZ6r5I2ChOH5X+HTjXCLulpo3YSpycTtR+vcm9KrYNC2LzqwizBfOyX4VY+j6Own4RXpzoRP7B2KGj+Z3IBtwilIGEgoeZcVBdgYyofjJkxJW/uG0g5Rs4aCud5RqdkyYXiBVeTxa+ncef/6sSUvBjQeJlLgPv+DH0+RY8DzrwoSBlM35mhHTJPIJ6QngKnmoz18IQtHun0KfIsiYWvojPijsNMJuUMzx8di41q7WQCzYx1us/SpafZRU5902SfwFyMM/SgxR8oloP/kpoSHMLWISYGNPAtHun0qwbFs+NCEjXFBCh6qTTB+bRJFYrBYebxxVsS5M4I1YdALadVJZ/6MoeyFdJ7b5rmZY2ZVpTZTz57zibnSpbdxFyNMtuqFfW61lesDBU6Ydo2IK0R56DgCjIgu47XUGyzwccxmWIpsvO4/jZaLt15lHVj9hBSBZNPqvy0XT7t15EVM6WY1Hy3fF5PYF/4plEyIuyDljDI9sQ0mpxRmLc5XEQRzOv530BZr4PA7Da5A4rQXzIFv7sbbI6ymHRtRqje/vJSqj5Zp8xGZNfFl3B5hxmqoRqg0bSoNm1R9TLi3YhSZlvR13CBhJjUxuM14TNP7LfWRhUm2V7gS+BYJAweSd47xrA778lKSTT74bml4xi0S9rDTbX72uL52JYKmrQJjNvnTlS6GvUnCMNnNpSu2ITW75Li8VDkEXlpR+stfwW0SloChO5Oo4JeFiWcL65zNcEjh7+E2CXuYYtDyuU11u+maOejeZO+3Vjev6S+4UcIeGiQA+7KolLu1LKl1p+v5OwsR2ke2XaDPwYoJKfw13CphD1PuJT/Mts2ZHQUeOAMG2miOOL/h7+FmCXvIovYzSWHMC7QHpJhv/k9xu4TFnBCzdDsuTMjoehriCfzulZtC6j+nwLEz/QxD9pXvxk4mGlfwq/w4bDyJMDyFE2HShMKnbdzxVzF++3Ay5hrCU8iY/XZv7x0caXskXSl1gnD2A7tN6xbF0g9AbbzqjZbHffO4nK9J+tR8yvzDtQmy+9sup/x/IiWZRY/9juasMaG2wO+8dv7/hxrPBRssRp+wEtJ+3/3K/1vEnKd1uKqH4w4/dkG+lkVv1b3jWzH1TzK3i/GOf4W1+6iQ6i7iSOw7ro1kJVM26MfeGH7HtTGe84t3X0brYnfI33FlpOvV/P35pfTxsl3013dP1JXwH2WW/F+V4n5jAAAAAElFTkSuQmCC;" vertex="1" parent="1">
          <mxGeometry x="50" y="360" width="147.69" height="40" as="geometry" />
        </mxCell>
        <mxCell id="C1OJzjw7HxmYDHeaSRX--4" value="" style="shape=image;verticalLabelPosition=bottom;labelBackgroundColor=default;verticalAlign=top;aspect=fixed;imageAspect=0;image=https://panel.holoviz.org/_static/logo_horizontal_light_theme.png;" vertex="1" parent="1">
          <mxGeometry x="470" y="423.68" width="224" height="52.64" as="geometry" />
        </mxCell>
        <mxCell id="C1OJzjw7HxmYDHeaSRX--5" value="" style="shape=image;verticalLabelPosition=bottom;labelBackgroundColor=default;verticalAlign=top;aspect=fixed;imageAspect=0;image=https://duckdb.org/images/logo-dl/DuckDB_Logo.png;" vertex="1" parent="1">
          <mxGeometry x="335" y="345.75" width="117.45" height="90.3" as="geometry" />
        </mxCell>
        <mxCell id="C1OJzjw7HxmYDHeaSRX--6" value="" style="shape=image;verticalLabelPosition=bottom;labelBackgroundColor=default;verticalAlign=top;aspect=fixed;imageAspect=0;image=https://miro.medium.com/v2/resize:fit:1400/0*-nthPFdA0KBK34i4.jpeg;" vertex="1" parent="1">
          <mxGeometry x="140" y="410" width="160" height="80" as="geometry" />
        </mxCell>
        <mxCell id="C1OJzjw7HxmYDHeaSRX--7" value="" style="shape=image;verticalLabelPosition=bottom;labelBackgroundColor=default;verticalAlign=top;aspect=fixed;imageAspect=0;image=https://ploomber.io/images/logo.png;" vertex="1" parent="1">
          <mxGeometry x="590" y="345.75" width="186.23" height="64.25" as="geometry" />
        </mxCell>
        <mxCell id="C1OJzjw7HxmYDHeaSRX--9" value="&lt;h1&gt;&lt;font color=&quot;#000000&quot;&gt;Powered by&lt;/font&gt;&lt;/h1&gt;" style="text;html=1;strokeColor=none;fillColor=none;spacing=5;spacingTop=-20;whiteSpace=wrap;overflow=hidden;rounded=0;align=center;" vertex="1" parent="1">
          <mxGeometry x="300" y="310" width="150" height="50" as="geometry" />
        </mxCell>
        <mxCell id="C1OJzjw7HxmYDHeaSRX--14" value="" style="shape=image;verticalLabelPosition=bottom;labelBackgroundColor=default;verticalAlign=top;aspect=fixed;imageAspect=0;image=https://cdn5.vectorstock.com/i/1000x1000/73/79/analysis-stock-market-black-icon-on-white-vector-31617379.jpg;clipPath=inset(25% 18.71% 31% 17.27%);" vertex="1" parent="1">
          <mxGeometry x="288.55" y="170" width="172.9" height="128.23" as="geometry" />
        </mxCell>
      </root>
    </mxGraphModel>
  </diagram>
</mxfile>
